<svg xmlns="http://www.w3.org/2000/svg" width="1024" height="1024" viewBox="0 0 1024 1024">
<g>
<path d="M 0.00 0.00 L 1024.00 0.00 L 1024.00 1024.00 L 0.00 1024.00 ZM 405.75 621.42 C406.16,621.83 431.48,621.96 462.00,621.71 C520.94,621.22 524.10,620.98 541.50,615.86 C571.65,606.97 597.97,583.22 608.68,555.24 C613.90,541.58 615.12,535.21 615.71,518.72 C616.33,501.24 615.34,492.48 611.30,479.50 C605.96,462.35 596.84,447.80 583.45,435.08 C571.77,423.99 557.28,415.67 540.63,410.50 C523.41,405.16 518.86,404.81 459.75,404.30 L 405.00 403.84 L 405.00 512.25 C405.00,571.88 405.34,621.00 405.75,621.42 ZM 722.73 623.49 C733.83,625.35 757.58,625.33 768.50,623.43 C792.21,619.32 810.87,609.78 826.99,593.52 L 834.49 585.96 L 818.49 570.60 L 802.50 555.24 L 795.93 561.97 C782.83,575.39 766.69,582.02 747.20,581.98 C717.88,581.92 695.13,565.73 685.75,538.22 C682.19,527.78 680.96,510.81 682.94,499.41 C686.56,478.58 698.93,461.44 717.07,452.14 C728.08,446.50 737.58,444.60 751.40,445.28 C769.79,446.18 781.55,451.34 794.69,464.26 L 801.89 471.34 L 815.69 458.27 C823.29,451.08 830.58,444.05 831.89,442.64 L 834.29 440.07 L 826.89 432.97 C812.46,419.13 796.30,410.31 776.00,405.21 C766.48,402.82 763.73,402.58 746.50,402.59 C725.95,402.60 719.79,403.42 705.71,408.05 C675.01,418.14 649.53,441.54 638.05,470.21 C633.23,482.24 631.01,493.14 630.33,508.04 C628.78,541.87 639.16,569.20 662.43,592.62 C678.67,608.96 699.39,619.56 722.73,623.49 ZM 263.50 446.50 L 264.01 622.00 L 315.99 622.00 L 316.50 446.50 L 350.27 446.24 L 384.04 445.97 L 383.77 425.24 L 383.50 404.50 L 197.00 403.99 L 197.00 445.97 L 230.25 446.24 ZM 515.50 578.00 C512.73,578.65 498.56,579.41 483.75,579.70 L 457.00 580.23 L 457.00 445.74 L 482.25 446.26 C503.99,446.71 508.68,447.10 516.00,449.00 C537.87,454.70 553.56,468.71 560.52,488.78 C562.67,494.99 563.30,498.96 563.73,509.11 C564.42,525.57 563.10,533.03 557.40,544.81 C551.05,557.94 542.93,566.09 530.00,572.28 C524.78,574.79 518.25,577.36 515.50,578.00 Z" fill="rgb(0,0,0)"/>
<path d="M 722.73 623.49 C699.39,619.56 678.67,608.96 662.43,592.62 C639.16,569.20 628.78,541.87 630.33,508.04 C631.01,493.14 633.23,482.24 638.05,470.21 C649.53,441.54 675.01,418.14 705.71,408.05 C719.79,403.42 725.95,402.60 746.50,402.59 C763.73,402.58 766.48,402.82 776.00,405.21 C796.30,410.31 812.46,419.13 826.89,432.97 L 834.29 440.07 L 831.89 442.64 C830.58,444.05 823.29,451.08 815.69,458.27 L 801.89 471.34 L 794.69 464.26 C781.55,451.34 769.79,446.18 751.40,445.28 C737.58,444.60 728.08,446.50 717.07,452.14 C698.93,461.44 686.56,478.58 682.94,499.41 C680.96,510.81 682.19,527.78 685.75,538.22 C695.13,565.73 717.88,581.92 747.20,581.98 C766.69,582.02 782.83,575.39 795.93,561.97 L 802.50 555.24 L 818.49 570.60 L 834.49 585.96 L 826.99 593.52 C810.87,609.78 792.21,619.32 768.50,623.43 C757.58,625.33 733.83,625.35 722.73,623.49 ZM 263.76 534.25 L 263.50 446.50 L 230.25 446.24 L 197.00 445.97 L 197.00 424.98 L 197.00 403.99 L 290.25 404.24 L 383.50 404.50 L 383.77 425.24 L 384.04 445.97 L 350.27 446.24 L 316.50 446.50 L 316.24 534.25 L 315.99 622.00 L 290.00 622.00 L 264.01 622.00 L 263.76 534.25 ZM 405.75 621.42 C405.34,621.00 405.00,571.88 405.00,512.25 L 405.00 403.84 L 459.75 404.30 C518.86,404.81 523.41,405.16 540.63,410.50 C557.28,415.67 571.77,423.99 583.45,435.08 C596.84,447.80 605.96,462.35 611.30,479.50 C615.34,492.48 616.33,501.24 615.71,518.72 C615.12,535.21 613.90,541.58 608.68,555.24 C597.97,583.22 571.65,606.97 541.50,615.86 C524.10,620.98 520.94,621.22 462.00,621.71 C431.48,621.96 406.16,621.83 405.75,621.42 ZM 515.50 578.00 C518.25,577.36 524.78,574.79 530.00,572.28 C542.93,566.09 551.05,557.94 557.40,544.81 C563.10,533.03 564.42,525.57 563.73,509.11 C563.30,498.96 562.67,494.99 560.52,488.78 C553.56,468.71 537.87,454.70 516.00,449.00 C508.68,447.10 503.99,446.71 482.25,446.26 L 457.00 445.74 L 457.00 512.99 L 457.00 580.23 L 483.75 579.70 C498.56,579.41 512.73,578.65 515.50,578.00 Z" fill="rgb(252,252,252)"/>
</g>
</svg>