<svg xmlns="http://www.w3.org/2000/svg" width="895" height="430" viewBox="0 0 895 430">
<g>
<path d="M 0.00 0.00 L 895.00 0.00 L 895.00 430.00 L 0.00 430.00 ZM 305.46 343.75 C306.06,345.33 415.67,345.54 432.50,343.98 C465.29,340.96 488.92,331.70 511.55,313.00 C527.50,299.82 541.92,277.70 548.38,256.50 C558.77,222.39 554.21,180.99 536.81,151.52 C534.53,147.66 532.39,144.27 532.06,144.00 C531.73,143.73 530.71,142.32 529.79,140.89 C528.88,139.45 524.42,134.35 519.88,129.55 C499.25,107.76 470.60,94.17 436.50,89.97 C429.61,89.13 407.68,88.74 366.00,88.73 L 305.50 88.72 L 305.24 215.61 C305.10,285.40 305.20,343.06 305.46,343.75 ZM 682.50 347.48 C692.44,349.08 713.58,349.32 725.45,347.96 C742.40,346.02 767.02,338.19 777.18,331.51 C779.28,330.13 782.91,327.76 785.25,326.25 C790.63,322.77 810.00,304.12 810.00,302.42 C810.00,301.72 808.76,300.17 807.25,298.98 C805.74,297.80 797.38,290.04 788.68,281.75 L 772.86 266.68 L 765.81 273.84 C753.53,286.32 741.05,293.22 724.73,296.56 C713.46,298.86 694.37,298.13 684.50,295.01 C645.38,282.66 624.05,242.29 633.05,197.66 C636.42,180.94 643.58,168.24 656.37,156.27 C679.28,134.84 715.28,130.04 744.14,144.57 C752.42,148.74 757.67,152.65 766.70,161.36 L 772.90 167.34 L 791.45 149.56 C801.65,139.78 810.00,131.46 810.00,131.07 C810.00,130.68 806.06,126.54 801.25,121.86 C783.78,104.89 764.03,94.52 738.50,88.91 C726.56,86.28 701.58,85.31 687.28,86.91 C648.80,91.22 614.16,111.17 592.96,141.22 C583.58,154.51 576.35,171.11 572.80,187.50 C571.01,195.75 570.62,200.92 570.57,217.00 C570.50,237.59 571.79,246.51 577.12,262.37 C580.11,271.26 588.61,287.35 594.32,294.94 C616.34,324.17 645.44,341.51 682.50,347.48 ZM 139.47 343.75 C139.83,344.71 146.86,345.00 169.96,345.00 L 199.99 345.00 L 200.50 138.50 L 280.00 137.98 L 280.00 89.29 L 263.75 88.64 C243.00,87.81 78.03,87.81 67.75,88.64 L 60.00 89.26 L 60.00 137.98 L 99.25 138.24 L 138.50 138.50 L 138.75 240.50 C138.88,296.60 139.21,343.06 139.47,343.75 ZM 434.00 293.07 C426.74,294.68 421.15,294.96 395.74,294.98 L 365.99 295.00 L 366.24 216.75 L 366.50 138.50 L 390.50 138.21 C421.55,137.84 433.50,139.37 449.00,145.71 C462.15,151.09 476.39,163.75 482.78,175.73 C490.65,190.51 494.12,210.16 492.04,228.09 C489.95,246.07 484.20,259.07 472.91,271.32 C462.30,282.84 450.54,289.41 434.00,293.07 Z" fill="rgb(2,2,1)"/>
<path d="M 682.50 347.48 C645.44,341.51 616.34,324.17 594.32,294.94 C588.61,287.35 580.11,271.26 577.12,262.37 C571.79,246.51 570.50,237.59 570.57,217.00 C570.62,200.92 571.01,195.75 572.80,187.50 C576.35,171.11 583.58,154.51 592.96,141.22 C614.16,111.17 648.80,91.22 687.28,86.91 C701.58,85.31 726.56,86.28 738.50,88.91 C764.03,94.52 783.78,104.89 801.25,121.86 C806.06,126.54 810.00,130.68 810.00,131.07 C810.00,131.46 801.65,139.78 791.45,149.56 L 772.90 167.34 L 766.70 161.36 C757.67,152.65 752.42,148.74 744.14,144.57 C715.28,130.04 679.28,134.84 656.37,156.27 C643.58,168.24 636.42,180.94 633.05,197.66 C624.05,242.29 645.38,282.66 684.50,295.01 C694.37,298.13 713.46,298.86 724.73,296.56 C741.05,293.22 753.53,286.32 765.81,273.84 L 772.86 266.68 L 788.68 281.75 C797.38,290.04 805.74,297.80 807.25,298.98 C808.76,300.17 810.00,301.72 810.00,302.42 C810.00,304.12 790.63,322.77 785.25,326.25 C782.91,327.76 779.28,330.13 777.18,331.51 C767.02,338.19 742.40,346.02 725.45,347.96 C713.58,349.32 692.44,349.08 682.50,347.48 ZM 139.47 343.75 C139.21,343.06 138.88,296.60 138.75,240.50 L 138.50 138.50 L 99.25 138.24 L 60.00 137.98 L 60.00 113.62 L 60.00 89.26 L 67.75 88.64 C78.03,87.81 243.00,87.81 263.75,88.64 L 280.00 89.29 L 280.00 113.63 L 280.00 137.98 L 240.25 138.24 L 200.50 138.50 L 200.25 241.75 L 199.99 345.00 L 169.96 345.00 C146.86,345.00 139.83,344.71 139.47,343.75 ZM 305.46 343.75 C305.20,343.06 305.10,285.40 305.24,215.61 L 305.50 88.72 L 366.00 88.73 C407.68,88.74 429.61,89.13 436.50,89.97 C470.60,94.17 499.25,107.76 519.88,129.55 C524.42,134.35 528.88,139.45 529.79,140.89 C530.71,142.32 531.73,143.73 532.06,144.00 C532.39,144.27 534.53,147.66 536.81,151.52 C554.21,180.99 558.77,222.39 548.38,256.50 C541.92,277.70 527.50,299.82 511.55,313.00 C488.92,331.70 465.29,340.96 432.50,343.98 C415.67,345.54 306.06,345.33 305.46,343.75 ZM 434.00 293.07 C450.54,289.41 462.30,282.84 472.91,271.32 C484.20,259.07 489.95,246.07 492.04,228.09 C494.12,210.16 490.65,190.51 482.78,175.73 C476.39,163.75 462.15,151.09 449.00,145.71 C433.50,139.37 421.55,137.84 390.50,138.21 L 366.50 138.50 L 366.24 216.75 L 365.99 295.00 L 395.74 294.98 C421.15,294.96 426.74,294.68 434.00,293.07 Z" fill="rgb(251,251,251)"/>
</g>
</svg>